<svg xmlns="http://www.w3.org/2000/svg" viewBox="0 0 338 392">
  <title id="hanFaceTitleID">Han Lee</title>
  <desc id="hanFaceDescID">Illustrated portraite by Han Lee</desc>
  <g id="hanFace" class="face">
    <path d="M315.12,213.52h0v-48c0-72.39-59.54-131.93-131.93-131.93H155.45c-72.39,0-131.93,59.54-131.93,131.93v47.36h0c-12.85,1.35-23,12.18-23,24.35v16.92c0,13.53,12.18,25,26.39,25H37.06c23,59.54,73.74,112.31,131.92,112.31h0c58.19,0,108.93-52.77,131.93-112.31h10.15c14.89,0,26.39-11.5,26.39-25V237.19C338.12,225,328,214.87,315.12,213.52Z" class="face__element face__skin"/>
    <path d="M315.12,213.52v-48c0-72.39-59.54-131.93-131.93-131.93H169v357.9c58.18,0,108.91-52.78,131.91-112.31h10.15c14.89,0,26.39-11.5,26.39-25V237.19C338.12,225,328,214.87,315.12,213.52Z" class="face__element face__shadow"/>
    <path d="M190,348.83H148.69a3.39,3.39,0,1,1,0-6.77H190a3.39,3.39,0,0,1,0,6.77Z" class="face__element face__mouse"/>
    <path d="M316.36,165.61c0-73.34-60-133.34-133.34-133.34H155c-73.34,0-133.34,60-133.34,133.34v39.1a95.22,95.22,0,0,0,5.72,32.49.8.8,0,0,0,1.55-.17l11.88-88.51a45.34,45.34,0,0,1,30.77-36.25,77.92,77.92,0,0,1,39.65-2h0l35.56,7.52a97.71,97.71,0,0,0,44.44,0l35.56-7.52h0a77.92,77.92,0,0,1,39.65,2,45.34,45.34,0,0,1,30.77,36.25L309.09,237a.8.8,0,0,0,1.55.17,95.22,95.22,0,0,0,5.72-32.49v-39.1Z" class="face__element face__hair-base"/>
    <path d="M315.12,204.25H227.84c-20.29,0-46.68,6.77-57.5,6.77h-.68c-11.5,0-37.21-6.77-57.51-6.77H24.88c-4.06,0-6.77,4.74-6.77,10.15s2.71,10.15,6.77,10.15h2A9.25,9.25,0,0,1,36.38,234v9.47A57.46,57.46,0,0,0,93.89,301h4.73a57.46,57.46,0,0,0,57.51-57.51V234.7h0a10.4,10.4,0,0,1,10.15-10.15H173a10.4,10.4,0,0,1,10.15,10.15h0v8.79A57.46,57.46,0,0,0,240.7,301h4.73a57.46,57.46,0,0,0,57.51-57.51V234.7h0a10.4,10.4,0,0,1,10.15-10.15h1.35c4.06,0,6.77-4.74,6.77-10.15S318.5,204.25,315.12,204.25Z" class="face__element face__glass-frame"/>
    <path d="M290,232.92a17.3,17.3,0,0,0-3.72-9.21l-.1-.14c-.24-.29-.5-.58-.76-.86l-.45-.48-.48-.45c-.29-.27-.57-.52-.87-.77l-.13-.1a17.38,17.38,0,0,0-6.61-3.27L245,287.47h1.12a43.89,43.89,0,0,0,44-44V234.7A17.39,17.39,0,0,0,290,232.92Z" class="face__element face__lens"/>
    <path d="M274.27,217.19c-.58-.05-1.17-.08-1.77-.08H214.31c-.59,0-1.19,0-1.77.08a17.33,17.33,0,0,0-9.22,3.72l-.13.1c-.3.25-.58.5-.87.77l-.48.45-.45.48c-.26.28-.52.57-.76.86l-.1.14a17.77,17.77,0,0,0-3.81,11v8.79a43.89,43.89,0,0,0,44,44H245l31.89-69.83A18.23,18.23,0,0,0,274.27,217.19Z" class="face__element face__lens" opacity="0.9"/>
    <path d="M142.51,232.92a17.3,17.3,0,0,0-3.72-9.21l-.1-.14c-.24-.29-.5-.58-.76-.86l-.45-.48-.48-.45c-.29-.27-.57-.52-.87-.77l-.13-.1a17.38,17.38,0,0,0-6.61-3.27L97.5,287.47h1.12a43.89,43.89,0,0,0,44-44V234.7A17.39,17.39,0,0,0,142.51,232.92Z" class="face__element face__lens"/>
    <path d="M126.78,217.19c-.58-.05-1.17-.08-1.77-.08H66.82c-.59,0-1.19,0-1.77.08a17.33,17.33,0,0,0-9.22,3.72l-.13.1c-.3.25-.58.5-.87.77l-.48.45-.45.48c-.26.28-.52.57-.76.86l-.1.14a17.77,17.77,0,0,0-3.81,11v8.79a43.89,43.89,0,0,0,44,44H97.5l31.89-69.83A18.23,18.23,0,0,0,126.78,217.19Z" class="face__element face__lens" opacity="0.9"/>
    <path d="M28.66,121.5H49.1a15.43,15.43,0,0,0,9.56-3.25c16.3-12.78,43.11-9.68,43.11-9.68,12.17-67.56,58.81-69,106.17-61.81,43.9,6.57,90.14,32.05,104.45,40.43a1.45,1.45,0,0,0,2-2C303.92,67.1,259,2.68,152.47,10.1,28.66,18.73,28.66,121.5,28.66,121.5" class="face__element face__hair-curl1"/>
    <path d="M287,121.55H308.4S301.64,71,284,51.38c-17.59-19-52.77-26-52.77-26s-58.18-14-63.59,95.44c17.59,3.51,33.82-7.72,57.5-9.83,22.32-2,32.78-5.21,53.17,7.94A15.91,15.91,0,0,0,287,121.55Z" class="face__element face__hair-curl3"/>
    <path d="M102.3,108.94s1.35-77.61,62.92-78.3,83.21,11.88,83.21,11.88-72.62-1.29-67.2,78.41c-12.86,2.1-29.55-.81-47.81-5.7C115.83,111.73,102.3,108.94,102.3,108.94Z" class="face__element face__hair-curl1"/>
    <path d="M76.46,110.24s-22.2-92.73,84-107.9c85.4-12.43,137.87,43.25,151,59.24a1.34,1.34,0,0,1-1.56,2.09c-14.62-6.19-60-24.25-100.73-28.24-39.24-3.44-76.9,30.4-74.88,80C133.64,115.47,95.41,104,76.46,110.24Z" class="face__element face__hair-curl2"/>
    <path d="M149.29,4.43c-93.4,20-72.83,105.81-72.83,105.81,10.66-3.49,27.27-.81,39.92,1.57C104.13,80.17,93.83,22.39,149.29,4.43Z" class="face__element face__hair-curl4"/>
    <path d="M236.23,81.18C216.46,97,216.35,112.13,189.4,119.32c10.55-2.69,21.88-7.06,35.78-8.3,22.32-2,32.78-5.21,53.17,7.94a15.91,15.91,0,0,0,8.64,2.59H308.4s-.6-10-5.42-27.08C294,62.94,255.89,65.51,236.23,81.18Z" class="face__element face__hair-curl1"/>
  </g>
</svg>
