<svg version="1.1" id="Layer_1" xmlns="http://www.w3.org/2000/svg" x="0" y="0" viewBox="0 0 64 64" xml:space="preserve"><style>.st1{fill:#88ce02}.st2{fill:#efefef}.st4{opacity:.3;enable-background:new}.st5{fill-opacity:0}.st6{opacity:.4;enable-background:new}</style><path d="M32 0c17.7 0 32 14.3 32 32S49.7 64 32 64 0 49.7 0 32 14.3 0 32 0z" fill="#262626"/><path d="M13.1 28c-1.9.9-6.8 4.8-7.8 6-1 1.2-1.3-.7-.3-3.7.8-2.5 2.9-5.8 6.3-8.6 2-1.6 6.4-4 9.2-5.4.5-.3 7.7-3.3 14-4.8.5-.1-.7.9-.8 1.5-1 2.8-20 14.7-20 14.7l-.6.3zM39.8 61.6c.3 2 0 2.1-2 2.4-2.1.3-3.6-.5-4.1-1-.5-.5-.7-1.6-.1-2.7.3-.7.7-.9.8-1.7.2-.8.3-1 .5-1.2.1-.3.2-.5.2-2.3 0-1.8 0-5.2.2-6.6.2-1.5 6.5.7 6.5.7s-1.5 3.7-1.9 4.7c-.4.9-.4 2.7-.4 3s-.1 1.1-.3 1.1c-.1 0 .4 1 .1 1.5 0 .5.5 1.8.5 2.1zM42.3 5.6c-.2-1.4 0-4.1.3-4.6.9-1.2 5.8-1.4 6.8.1.4.7.4 2.2.3 3.2-.1 1-.3 3.1-.4 3.8 0 .5-5.3 1.3-6.5-.1-.4-.4-.5-2.4-.5-2.4zM53 58c2.2 1.6 4 1.9 5.1 2.5 1.1.6.8 1.7-1.1 2.1-1.5.3-4-.3-5.6-.3s-5.2.2-6.2-.5c-1.1-.8-.6-2.2-.6-2.2.3-.8 1-2.6.8-4.1-.2-1.5-.5-2.3-1.1-3.6-.5-1.4-1-4.7-.4-4.9.5-.2.4 0 1 .1.7.1 1.4.4 2.8.4s3-.2 3.6-.3c.5-.1 1-.2.8.9-.2 1.1-.7 3.3-.8 4.9 0 1.6 0 3.6.1 3.9.2.3 1 .7 1.6 1.1z"/><path class="st1" d="M45.2 9.2c-4 3.5-11.8 4.4-23.4 8.9-3 1.1-10.9 4.5-12.8 8.1 6.4-3.7 8.8 1.4 9.3 6.6.5 4.9 2.9 7.5 9.2 7.3 6.5-.1 8.5 3.7 10.3 8.1 3.5-17 9-20.3 12.6-23.2 7.6-6.1-1.7-17-5.2-15.8z"/><path class="st1" d="M45.2 9.2c-9.7 3.4-19.2 4.2-30.5 11.1C12 22 6.4 25.7 5.3 32.9 9.4 28.3 18.9 22.6 30.5 19c5.9-1.8 10.1-3 15.3-5.1-.3-2.3-.3-3.2-.6-4.7z"/><path d="M57.5 29.3s-.7 2.4-2.1 3.2c0 0-1 .4-3.1-.8-.6-.3-1-1.5-1-1.8 0-.9.6-1.3.6-1.3s.6-1 1.3-1c.7 0 1.9.1 2.2-.2.4-.3 2.2.7 2.1 1.9zM42.6 6.3s-.1 1.9-.4 3c0 .2-1.1.3-1.9.7 1.5 4.4 10.8 4.4 12 2.2-.6-.4-1.8-1-2.3-1.2-.5-.2-.5-.2-.5-1.2s-.1-2.9-.2-3.4c-.2-.7-5.8-.7-6.7-.1z"/><path class="st2" d="M42.9 6.3s0 1.1-.1 2.1c0 .5-.1.8-.1 1.1 0 .2 1.2 1.1 1.6 3 1.8 3.9 5.8 2 7.5.1-.6-.4-1.5-1-2.6-1.4-.5-.2-.3-.7-.3-1.7s-.2-2.5-.3-3.1c-.1-.5-4.8-.7-5.7-.1z"/><path d="M42.6 6.3s0 .7-.1 1.4c.5.5 1.1 1.1 1.6 1.5.3.3 1.1.3 1.9.3.7 0 1.2.1 1.5-.1.6-.3 1.4-1 1.9-1.6 0-.7-.1-1.3-.1-1.6-.2-.5-5.8-.5-6.7.1z"/><path d="M45.9 9c-.4 0-1 0-1.4-.1-.2 0-.4-.1-.5-.2-.3-.2-.5-.4-.8-.6-.6-.4-.6-.7-.6-.8.3-2.3-.1-4.3-.1-4.3s-.3-1 1.1-1.2c1.4-.3 2.2-.3 2.2-.3s.9 0 2.2.3C49.5 2 49.3 3 49.3 3s-.3 2-.1 4.3c0 .1 0 .4-.6.8-.5.4-.9.8-1.3.8-.4.1-.9.1-1.4.1z"/><path d="M45.9.5c-2.4 0-2.9.7-3.6 1.4-.1.2 0 1.3.2 3.6h.3s-.2-.7-.2-1.4c0-.8.2-.7.1-.9-.1-.2-.4-.6.2-1 .7-.4 1.7.3 2.9.3s2.3-.7 3-.3c.7.4.4.7.2 1-.1.2 0 .1.1.9 0 .8-.2 1.4-.2 1.4h.3c.2-2.3.4-3.4.3-3.6C49 1.2 48.3.6 45.9.5zM57.5 29.4s-.7 2.2-2.1 3c-.3-.1-.3-.4-.5-.7-.1-.1-.3-.2-.4-.3-.1-.1-.1-.3-.3-.4-.1-.1-.3 0-.4-.1-.1-.1-.2-.3-.3-.4-.1-.1-.4-.1-.4-.2-.2-.2-1.8-.5-1.7-.9.1-.5.4-1 .4-1s.7-1 1.4-1 1.4.2 1.7-.1c.5-.4 2.7.9 2.6 2.1z"/><path d="M52.8 13.2s2.3-.5 3.9 1 1.5 3.4 1 4.6c.4.5 1.1 1.8.6 3.4 2.4 2.1 1.4 5.2-.8 7.3 0 0-.5-1.9-2.6-2 .1-.7-1.9-1.3-1-3.2-1.4-.3-1.4-1.3-1.6-2.5-.2-1.2.5-8.6.5-8.6z"/><path class="st2" d="M51.9 14.2s2.7-1.4 4.2.2c1.6 1.5 1.1 3.2.7 4.4.4.5 1.4 1.8.8 3.4-.1.4-.9.4-1.5 1.3 1.5-.8 2.4-.6 2.7.4.5 1.6-.6 3.6-1.6 4.7v-.1c-.1.5-.3 1.6-1.4 2.8-.5.6-1 .5-1.6.4-.7-.2-1-.5-2-1.1-.6-.3-.3-.7-.3-1.1 0-.1.1-.2.2-.3.1-.2.3-.5.6-.8 0 0 .5-.7 1.2-.6.7 0 1.4-.1 1.6-.3 0-1.3-1.5-1.3-1-3.5 0-.1.2-.3.8-.4-.9-.2-1.3-.2-1.9-.8-.4-.4-.8-.9-.9-1.6-.2-1-.6-7-.6-7z"/><path d="M44.2 11.9c-.2-.3-1.4-1.8-3.5-2.3-.6-.2-1 .3-1.6.7-.2-.1-1-.5-1.4-.2-.4.3-.7.5-1.2.7-.2-.1-.8-.1-1.3.1-.5.1-1.2.5-1.9 1.4-.4 1.6 7.8.4 7.8.4l3.1-.8z"/><path class="st1" d="M44.3 11.9c-1.2-.4-1-1.8-3.6-2-.5 0-.8.4-1.2.6.2.2.4.5.5.8-.3-.4-.9-.8-1.5-1-.5-.1-.9.3-1.5.6.1.1.2.3.4.5-.5-.3-.9-.4-1.6-.2-.5.1-1.4.5-2.1 1.5-.4 1.6 7.4-.2 7.4-.2l3.2-.6z"/><path d="M51.2 12.5v-.8c0-.1-.3-.3-.3-.3l-.1-.1s.6-.3 1-.1c.5.1.7.8.7.8.8-.3.9 0 1.3.5.9-.2 1 .1 1.5 1 0 0-.7-.1-1.9.1-1.2.1-2.2-1.1-2.2-1.1z"/><path class="st1" d="M51 12.3s.2-.2.1-.2c.4-.2 1-.5 1.2.2.8-.3 1 .1 1.4.5 1-.5 1.1.1 1.2.4-.3 0-.8 0-1.5.1-1.2.2-2.4-1-2.4-1z"/><path d="M38.6 11.4s2.1.7 3.8.6c1.8-.1 4.8-.3 6.4.7 0 0 1.6-.6 3.2-.2 1.5.4 4.4 3 3.5 5.8-.1.2-.5.5-1.1.7 0 0 .3 1.2-.2 2.3-.5 1-1.6 2.9-1.7 5.5 0 .4-.1 1.4-.2 1.8-2.9-.1-7.3-1.2-11.6-1.1 0-.5.1-.8.1-1.2h.1c-.2-1.2-.3-1.8-.5-2.7-1.4-.9-2.9-1.9-4.1-3.8-1.2-2.1 2.3-8.4 2.3-8.4zM52.7 31.2s2.3 8.1-.4 11.5c0 0 .4 1.6-.5 3.3-.1.7-.3 1.4-.4 2.1-.5 3-1.3 4.3-1.5 9.2h-2.2s-.3-3.5-1-5.4c-.4-1.1-2.2-2.5-2.1-3.9.1-1.1.3-2 2.2-3.5.1-2.1-2-4.1-1.6-12.1l7.5-1.2z"/><path class="st2" d="M52 30.9c.6 3.7 1.9 9.3-.5 12 .1.5.2 1.2 0 2.1-.1.4-.2.9-.4 1.4-.4.9-.5 2.2-.6 2.9-.5 3-.5 3.2-.7 8.1h-2.2s-.3-3.5-1-5.4c-.4-1.1-1.4-2-1.4-3.4-.1-1.1.7-3.3 2.5-3.2-.1-4.4-2.2-3.6-2.7-12.8l7-1.7zM38.6 11.4s.8.3 1.7.3c.9.1 1.8 0 2.7 0 1.8-.1 4.2-.3 5.9.6 0 0 .9-.3 1.9-.2.4 0 .9.4 1.4.5 1.6.4 3.2 3.1 2.5 5.5-.1.2-.6 0-1.2.2.1.5.2 1.7-.4 2.9-.6 1.2-1.4 2.9-1.3 5.9-3.8-.2-5.6-.4-9.4-.6-.3-1.4-.5-2.7-.6-3.4.5-.3.8-.5 1.2-.9-1.1.2-1.5.1-2.2-.3-.7-.4-1.8-1.5-2.4-2.3-.1-.1-.5 1.1-1.4 1.2-.3-.5 1.1-1.8.8-2.3-1-1.8.8-7.1.8-7.1z"/><path d="M52.3 27.8s.1 1.3.1 1.6c0 .4.3 1.5.3 2-.4.7-2.2 2.3-5.3 2.9-3.2.7-7.3-4.3-7.3-4.3.1-.5.5-1.9.7-2.6 0-.1.1-.3.1-.3.3-.5 11.4.7 11.4.7z"/><path class="st2" d="M51.5 27.9c0 .9.1 1.6.3 2.2.2 1.1.5 1.8.5 2.5 0 2.1-2.8 1.8-5.1 1.8-3.2.7-5.8-4.3-5.8-4.3.2-.8.4-1.8.7-2.6 0-.4.1-1 .1-1.2 4.5 0 7.6.3 9.5.4 0 .4-.1 1.1-.2 1.2z"/><path d="M48 32.7s-1.9-4.3-7.8-3c-1.4 3.9-3.3 8.4-2.1 13.3-1.2 1.6-2.6 2.6-2.6 5.6 0 3 .1 3.6.1 3.6l4.3.2s1.4-1.8 1.9-3.7c.1-.5.3-1.5.2-2.7.1-.2.8-.7.8-1.7 0 0 2.1-1.1 3.3-3.8 1.3-2.5 1-4.6 1.9-7.8z"/><path class="st2" d="M48 32.7c-.1-.4-1.6-4.4-7-3.2-3.2 8.5-2 12-1.5 13.6-2.2 2.7-3.2 3.3-2.7 8.9h2.9c1.3-2.1 1.6-2.9 1.7-5.6 0-.1-.4.2-.7.6.2-1.1.8-1.4 1.3-2.1.2-.3.4-.7.4-1.3 2.6-1.7 3.5-3.9 4.1-6.1.3-1.6.8-4.1 1.5-4.8z"/><path d="M39 26.8s1 0 1.9.3c.8.3.8.5 1.2.8.3.4 1.1.9 1 1.5-.1.3-.3.4-.5.6-.1.1-.9 1-1.1 1.1-.1.1-.3.2-.4.3-.1.1-.4.3-.5.4-.4.2-.6.3-1 .3 0 0-.9 0-1.5-.7 0 0-.1-.3.1-.4 0 0-.8-.7-1-1.1-.2-.4-.2-1.1-.1-1.4-.1-.4 1.3-1.3 1.9-1.7zM39.9 62.4l-.1.9s-.3.4-2.8.4-3.2-.8-3.4-1.2l-.1-1s.5-.7.6-.7c.8.1 3.6 1.2 5.5 1.5.1 0 .1.1.3.1zM45.2 60.5v.8c.4.3 1.5.5 3.6.5 3-.1 5.9.9 9.3.3v-.7h-.3l-12.2-1-.4.1z"/><path d="M47.9 61.8h.9c2-.1 3.8.4 5.9.5 1.1 0 2.4-.3 2.3-1.1l-10.4-.9c-.7.8-.2 1.3 1.3 1.5zM35.9 46.4c.3.2 2.6 1.5 6.2 1.4-.1.7 0 2.1-1.6 4.4-.8 1.2-1.5 3.2-1.6 5.8 0 .6.4 1.1-.1 1.9.1.5.7 1.4 1 2 .3.6.4 1.2-1.5 1.3-2 0-5.2-.2-4.7-1.7.2-.8.8-1.6.9-2 .1-.3.1-1.3.7-2 .5-1.8.4-3.6.3-5.2-.3-1.8-.3-4.5.4-5.9zM39.3 16.5c2.6-3.5.4-6.3-3.8-5.4-1.7.3-3.4 1.5-3.5 3.6-.5.1-1.8.1-2.4 2.4-.5 1.8-.7 2.1-1.6 3-.5.6 0 1.9.4 2.8 1.4 3.2 5.5 3.4 8.4 5.8 1-.3 1.9-1.3 2.2-2-2.4-2.8-1.9-3.9-2.8-5.4 1.1-.3 3.5-1.7 3.1-4.8z"/><path class="st2" d="M38.8 16.3c.1-.2.4-.7.5-.9 0 0 .4.7.5.6 1-1.6 1.2-4 .1-4.2-.3 0-.7-.1-1.1-.3-.7-.3-1.4-.3-2.6 0-1.6.4-3.2 1.5-3.2 3.2 0 .1 1.1.4 1.5 1.8-.5-.8-1.5-1.6-2.6-.9-1.2.8-.6 2.5-2.2 4.4-.5.6-.5 1.4.1 2.8 1 2.3 5.5 3.6 7.9 5.8.6-.3 1-.8 1.3-1.3-1.6-1.7-2.3-3.3-2.8-4.5-.6-1.4-1.2-2.1-2.5-3.2.7.3 1.2.5 1.5.7.3.2.8.3 1.2.1 1.5-.5 2.3-2.7 2.4-4.1z"/><path d="M54.7 16.9c-.1 1.4-1.1.7-1.7.4-1.1-.5-2.2-.8-3.5-.8s-2.9.1-4.4.5c-2 .5-2.6.5-3.4.1-.9-.5-2.4-1.6-2.4-1.6s0 .4.3.8c.5.6 1.5 1.3 3 1.8.7.2 1.2.1 1.9-.1 3.3-.8 6.7-1 9.6.8.1.1.7-.1.9-.5.3-.4-.3-1.4-.3-1.4z"/><path d="M38.1 30.9c.3.2.7.3 1.1.6 0 0-.3 0-.5-.1-.2-.2-.6-.5-.6-.5z" fill="#001423"/><path class="st2" d="M48.7 1.8c-.1-.3-.9-.9-2.8-.9-2 0-2.6.6-2.6 1 0 .1-.1 1.3-.2 1.8v1.5c0 .6.2.9.3 1.7.1.8.3 1.3.7 2 .1 0 .3.1.5.1.7.1 2 .2 2.7 0 .4-.1.9-.8 1-1.4.1-.8.3-1.3.3-1.8.1-.5.1-1.5.1-1.8.2-.9 0-2.1 0-2.2z"/><path d="M44.8 47.1s1.9.8 6.7.1c0 0-1.4 6.8-.7 10.2 0 0 .6.9 5.2 2.6 0 0 2.1.5 2 1.5 0 0 .1.2-2.4.1s-4.8-.5-6.5-.5-3.4.1-3.7-.4c-.3-.4.1-1.6.5-2.2.5-.7.4-1.2.3-2.5 0-3.2-2.5-6.6-1.4-8.9z"/><path class="st1" d="M44.4 47.7c-.3.4 0 1.8.4 3.1.4 1.4 1.2 2.2 1.4 4.4.2 2.2.2 2.5-.4 3.8-.6 1.3-.8 2.5 1.4 2.5s3.3 0 5.5.3 3 .4 4.2.3 1.5-.6 1-1-2.6-.8-3.6-1.5c-.9-.7-3.4-1.8-3.4-2.1-.1-1-.1-4.6 0-5.8.2-1.2.4-2.9.5-3.3.1-.4.4-.9-.2-.7-.6.1-3 .5-4.7.4-1.8-.1-2-.5-2.1-.4z"/><path class="st4" d="M45.7 59c.6.3 1.5.5 2.2.5 0 0-.3 1.2.1 1.9s-2.9.3-2.9.3l-.1-2.5.7-.2zM55.4 62.2c.6-.2 1-.8.5-1.5-.5-.6-1-.7-.3-.8.7 0 3.1 1.4 3.1 1.4l-1.2 1.1-2.1-.2zM44.3 49.1c.8.3 2.1.4 3.2.3 1.1 0 2.7-.2 3.8-.5 1.1-.4.6.4.6.4l-.6.5s-1.4.5-3.7.5c-2.7 0-3.5-.3-3.5-.3l.2-.9zM44.4 51c.8.3 2.1.4 3.2.3 1.1 0 2.6 0 3.6-.4.4-.1.2.5.2.5l-.2.3s-1.4.5-3.7.5c-2.7 0-3.2-.3-3.2-.3l.1-.9z"/><path class="st5" d="M44.8 47.1s3.2 1.1 6.8.4c0 0-1.4 6.6-.8 9.9 0 0 .6.9 5.2 2.6 0 0 2.1.5 2 1.5 0 0 .1.2-2.4.1s-4.8-.5-6.5-.5-3.4.1-3.7-.4c-.3-.4.1-1.6.5-2.2.5-.7.4-1.2.3-2.5 0-3.2-2.5-6.6-1.4-8.9z"/><path class="st5" d="M44.8 47.1s3.2 1.1 6.8.3c0 0-1.4 6.6-.8 10 0 0 .6.9 5.2 2.6 0 0 2.1.5 2 1.5 0 0 .1.2-2.4.1s-4.9-.8-6.5-.5c-1.7.3-3.4.2-3.7-.4-.3-.5.1-1.6.5-2.2.5-.7.4-1.2.3-2.5 0-3.2-2.5-6.6-1.4-8.9z"/><path d="M42 25.3c0 .3 2.9 1.7 4.4 2 1.6.3 4.9 0 5.4-.1l-.1.5s-3.9.6-6.9-.2c-3-.8-2.7-1-2.7-1l-.1-1.2z"/><path class="st2" d="M35.8 56.5c.4.2 2 .6 3 .4.1 0 0-2.5.4-3.7.6-1.6 1.5-2.9 2-5.6-1.5-.1-3.3-.5-4.2-.8-1.1 3.6-.7 6.7-1.2 9.7zM38.3 58.9c.3.1.4.4.5.2.1-.3-.3-1-.3-1.4-.3-.3-2.6-.3-2.4-.2-.3.5-.7.4-.8 1.4-.1.5.5.1 1.1 0-1 .7-2.1 1.5-2.3 2.2-.2 1 .1 1.3 1.2 1.9 1 .2 2.1.3 3 .2 1-.2 1.2-.7.9-1.3-.5-1.1-.8-2.3-.9-3z"/><path d="M38.7 11.3c1.2.7 2.9.5 3.5.5.1 0 1.6-.3 1.7-.2.1 0 .1.1.1.1s-.5.3-1.7.3c-1.2.1-2.6 0-3.3-.4-1-.3-.3-.3-.3-.3zM51.2 12c.2.1 1.6.7 2.3 1.4.5.6.3.5.1.4-.1-.2-1.3-1-1.7-1.1-.4-.2-1-.5-1-.6s.3-.1.3-.1z"/><path class="st2" d="M38.5 27.2c1.1-.1 2.2.2 2.9.9.4.4 1 .8.9 1.1 0 .1-.2.4-.4.6-.1.1-.4.5-.5.6-.1.1-.7.5-.8.6-.1.1-.3.3-.4.3-.4.2-.8 0-1.1-.1-.4-.2.1-.2-.3-.5-1-.7-1.5-1.2-1.1-2.5-.1-.3.3-.6.8-1z"/><path class="st6" d="M29.2 18.8c-3.3 1.3-11.7 5.5-14.1 6.8 2 1.2 2.9 4.2 3.2 7.3 0 .3.1.5.1.8 0 .3.1.4.1.5v.1c2.2-5.9 9.9-12.1 10.2-12.6.1-.2-.2-1.2.3-2.1.7-1.1 2-1.6.2-.8zM37 46.4c1.7-3.4 1.7-6.6 1.7-10.4 0-1.6 1.1-3.8.5-3.2-2.2 2.5-7.7 7.1-11.7 7.3 5.6-.1 7.8 2.7 9.5 6.3z"/><path d="M11.9 28.7c2.1-1.5 12.9-7.3 15.5-8.1 2.6-.8 1.8-1.8 1.8-1.8s-10.5 4.5-16.9 8.5"/><path class="st6" d="M42.7 18.1c-.8-.3-1.5.7-1.3 1.6.2 1 2.2 2 2.1 5.5-.1 2.9-.7 4-.7 4l-1.4-1.8s-.2-4-.7-4.5c-.5-.6-2-1.6-2.6-2.2-.6-.5.7-1.3.6-2.3-.1-1 .6-3 .6-3l3.4 2.7zM47.7 33.7c-.1 2.7.5 6.8.8 8.8.3 1.9.6 2.1 0 3-.6.8-1.4 2.2-1.4 2.2l-2.5-.2s2-2.6 2.1-3c.1-.5-1-4.1-1-4.1l2-6.7zM42.9 8c.5 1.1 1.1 1.6 2.1 2 .6.2 2.9.5 3.8-.5.4-.5.2-1.7.2-1.7l-2.1 1.7-2.9-.6-.3-.8-.8-.1z"/><path d="M43.1 10.6c1 .6 3.3 1.2 4 1.3.7.1 1.7-.7 2.2-.9.5-.3 1.5-.4 2.6.6.1.1-.3.6-.3.6s-.3 0-.5-.2c-.3-.1-.5-.3-1-.2-1.8.2-2.1.8-3.7.5s-2-.7-3.6-.6" fill="#88ce02" stroke="#000" stroke-width=".285" stroke-linejoin="round" stroke-miterlimit="10"/><path class="st1" d="M42.8 10.7c1.2.5 3.6 1.1 4.2 1.2.7.1 1.7-.5 2.2-.8.9-.6 2.1-.1 2.6.5.4.4.5.7.5.8 0 .1-.4 0-.4 0-.3-.1-.5-.1-.8-.3-.3-.1-.6-.4-1-.3-1.8.2-2.2.8-3.8.5-1.6-.4-2-.7-3.7-.6"/><path d="M37.1 44.9c-.1-.1.1-.1 0-.1-.5 0-1.1-.4-1.5-.9-1.6-2.3-3.9-3.8-8.1-3.7-6.3.1-8.8-2.4-9.2-7.3-.3-2.7-1-5.3-2.5-6.7l-.9.5c1.7 1.5 2.2 3.8 2.6 7.1.6 4.9 4.5 7.2 9.2 7.3 4.8.1 6.5 1.1 8.3 3.5.6.8 1.2 1 1.8 1.1l.3-.8z"/><path class="st6" d="M54.1 21.3c.1.5.4 1.6 1 2.1.3.3.3.3.1.3-.2 0-1.8-.1-1.8-.1l-.5-.6 1.2-1.7z"/></svg>