<svg xmlns="http://www.w3.org/2000/svg" viewBox="0 0 64 64">
	<path class="icon__part" d="M64,32C64,14.3,49.7,0,32,0S0,14.3,0,32c0,14.3,9.4,26.4,22.3,30.5c0.9-0.5,1.6-1.4,1.7-2.5v-7.1
	c-7.8,1.8-9.5-3.7-9.5-3.7c-1.2-3.2-3.1-4.1-3.1-4.1c-2.5-1.7,0.2-1.7,0.2-1.7c1.8,0.2,3.3,1.3,4.2,2.8c2.6,4.5,7,2.9,8.3,2.2
	c0.2-1.3,1.2-2.3,2.4-2.5c-7-0.7-14.5-3.2-14.5-15.5c-0.1-3.1,1.1-6.1,3.2-8.4c-1-2.7-0.9-5.7,0.3-8.4c0,0,2.7-0.8,8.7,3.2
	c2.6-0.7,5.2-1,7.9-1.1c2.7,0,5.3,0.4,7.9,1.1c6-4.1,8.6-3.2,8.6-3.2c1.2,2.6,1.3,5.6,0.3,8.3c2.1,2.3,3.3,5.3,3.2,8.4
	c0,12.3-7.6,14.8-14.7,15.6c1.3,0.9,2.6,2.5,2.6,5.7v6.1V60c0.2,1.1,0.8,2,1.7,2.5C54.6,58.4,64,46.3,64,32z"/>
</svg>
