<svg xmlns="http://www.w3.org/2000/svg" viewBox="0 0 64 64">
	<path class="icon__part" d="M32,0C14.3,0,0,14.3,0,32c0,17.6,14.3,32,32,32s32-14.4,32-32S49.7,0,32,0z M59.3,31.8c-0.9-0.2-9.9-2-19-0.9
	l-0.6-1.4l-1.8-4c10.1-4.1,14.7-10,15.2-10.8v0C57.1,19.5,59.3,25.5,59.3,31.8z M35.8,21.5c-3-5.5-6.5-10.9-10.2-16
	C27.7,5,29.8,4.7,32,4.7c6.7,0,13.1,2.4,18.1,6.9C49.6,12.3,45.5,17.8,35.8,21.5z M20.4,7.3c0.7,1,5.6,7.7,10.1,15.8
	c-12.8,3.4-24.1,3.4-25.3,3.3C7,18,12.7,10.9,20.4,7.3z M4.7,31.2c1.2,0,14.5,0.2,28.1-3.9c0.8,1.5,1.5,3.1,2.2,4.6
	c-0.3,0.1-0.7,0.2-1.1,0.3c-14.1,4.6-21.6,17-22.2,18v0c-4.4-4.9-7-11.3-7-18.3C4.7,31.7,4.7,31.5,4.7,31.2z M36.7,36.5
	c0,0,0.1,0,0.2,0c3.8,10,5.4,18.3,5.8,20.7c-3.3,1.4-6.9,2.2-10.7,2.2c-6.3,0-12.2-2.2-16.8-5.8C15.7,52.6,21.2,41.9,36.7,36.5z
	 M47.2,54.7C47,53,45.5,45,42,35.2c8.6-1.4,16.1,0.9,17,1.2v0C57.8,44,53.4,50.5,47.2,54.7z"/>
</svg>
