<svg id="Layer_1" data-name="Layer 1" xmlns="http://www.w3.org/2000/svg" viewBox="0 0 64 64"><path d="M32,0A32,32,0,1,0,64,32,32,32,0,0,0,32,0Z" fill="#4275ba"/><path d="M32,64A31.91,31.91,0,0,0,55.87,53.3C50.43,50.77,41.76,49.13,32,49.13S13.57,50.77,8.13,53.3A31.86,31.86,0,0,0,32,64Z" fill="#a2ddf2"/><path d="M40,60v-2.2h0V51.66c0-3.16-1.35-4.82-2.63-5.69,7.09-.75,14.69-3.28,14.69-15.56A12.06,12.06,0,0,0,48.83,22a11.3,11.3,0,0,0-.31-8.35s-2.63-.84-8.63,3.22A32,32,0,0,0,32,15.78a31.6,31.6,0,0,0-7.88,1.06c-6-4.06-8.66-3.22-8.66-3.22A11.47,11.47,0,0,0,15.17,22,12.17,12.17,0,0,0,12,30.41C12,42.69,19.55,45.25,26.64,46a3.18,3.18,0,0,0-2.44,2.53c-1.34.66-5.68,2.28-8.31-2.22a5.82,5.82,0,0,0-4.25-2.84s-2.72,0-.19,1.69c0,0,1.82.84,3.07,4.06,0,0,1.65,5.45,9.49,3.69V60A3.35,3.35,0,0,1,22.3,62.5c.94.3,1.91.56,2.89.77a3.27,3.27,0,0,0,2-3.2V58.55h0V53.33a5.2,5.2,0,0,1,.37-1.86,1.94,1.94,0,0,1,.63-.83v.85h0v9.24a5.79,5.79,0,0,1-.91,2.91c.95.14,1.91.24,2.88.29a4.77,4.77,0,0,0,1.37-3.37V59h0l.06-7.35V50.35h.83v1.3h0L32.5,59v1.59a4.77,4.77,0,0,0,1.37,3.37c1-.06,1.93-.15,2.87-.29a5.93,5.93,0,0,1-.91-2.91v-2h0v-8a2.34,2.34,0,0,1,.73,1.08A4.79,4.79,0,0,1,36.83,53a6.75,6.75,0,0,1,0,.92v6.15a3.28,3.28,0,0,0,2,3.19c1-.22,2-.47,2.9-.77A3.38,3.38,0,0,1,40,60Z" fill="#292929"/><path d="M10.88,45.89l-.54,1.87a.65.65,0,0,0,.5.8c.67,0,.61-.64.57-.84l-.53-1.83Z" fill="#a2ddf2"/><path d="M44.16,30a7,7,0,0,1,2.58,5.15c0,8.93-6.68,9.18-14.91,9.18s-14.91-1.24-14.91-9.17A7,7,0,0,1,19.46,30c2.68-2.44,7.22-1.15,12.37-1.15s9.64-1.3,12.33,1.12" fill="#f5cdb5"/><path d="M26.87,35.57c0,2.46-1.39,4.46-3.1,4.46s-3.1-2-3.1-4.46,1.38-4.45,3.1-4.45,3.1,2,3.1,4.45" fill="#fff"/><path d="M25.87,35.63c0,1.64-.93,3-2.06,3s-2.07-1.33-2.07-3,.92-3,2.07-3,2.06,1.33,2.06,3" fill="#b2655b"/><path d="M43.51,35.57c0,2.46-1.39,4.46-3.1,4.46s-3.1-2-3.1-4.46,1.39-4.45,3.1-4.45,3.1,2,3.1,4.45" fill="#fff"/><path d="M42.52,35.63c0,1.64-.93,3-2.07,3s-2.07-1.33-2.07-3,.93-3,2.07-3,2.07,1.33,2.07,3m-9.87,3.89a.78.78,0,0,1-.78.78.78.78,0,1,1,.78-.78m-2.59,2a.26.26,0,0,1,.16-.32.24.24,0,0,1,.31.15,1.42,1.42,0,0,0,2.67,0,.24.24,0,0,1,.31-.15.26.26,0,0,1,.16.32,1.93,1.93,0,0,1-2.46,1.15,2,2,0,0,1-1.15-1.15" fill="#b2655b"/><path d="M12.71,44.14c0,.21-.25.38-.55.38s-.54-.17-.54-.38.25-.37.54-.37.55.16.55.37M14.2,45c0,.21-.24.37-.54.37s-.54-.16-.54-.37.24-.37.54-.37.54.16.54.37m.92,1.08c0,.2-.24.37-.54.37s-.54-.17-.54-.37.24-.38.54-.38.54.17.54.38M16,47.29c0,.21-.24.38-.54.38s-.54-.17-.54-.38.24-.37.54-.37.54.16.54.37m.92,1.17c0,.2-.25.37-.54.37s-.55-.17-.55-.37.25-.38.55-.38.54.17.54.38m1.24,1c0,.21-.24.38-.54.38s-.54-.17-.54-.38.25-.37.54-.37.54.17.54.37" fill="#c6e6db"/><path id="E" d="M19.86,50.12c0,.2-.24.37-.54.37s-.54-.17-.54-.37.24-.38.54-.38.54.17.54.38" fill="#c6e6db"/><path id="E-2" data-name="E" d="M21.6,50.12c0,.2-.24.37-.54.37s-.54-.17-.54-.37.24-.38.54-.38.54.17.54.38" fill="#c6e6db"/><path d="M23.37,49.83c0,.2-.25.37-.54.37s-.55-.17-.55-.37.25-.38.55-.38.54.17.54.38" fill="#c6e6db"/></svg>